<svg width="281" height="74" viewBox="0 0 281 74" fill="none" xmlns="http://www.w3.org/2000/svg">
<g clip-path="url(#clip0_718_1206)">
<path d="M0.100648 18.4141L0 55.4099L32.0144 73.9916L64.1294 55.5775L64.23 18.5817L32.2073 0L0.100648 18.4141ZM32.0731 53.0798L18.1585 45.0001L18.2005 28.9245L32.1569 20.9201L46.0715 28.9999L46.0296 45.0755L32.0731 53.0798ZM28.4665 7.71933L28.693 17.3413L13.3778 26.125L13.3526 35.3279L4.8898 35.529L4.93174 21.2219L28.4665 7.72772V7.71933ZM4.87303 40.3568L13.3358 40.1556L13.319 47.7828L29.6407 57.2622L29.8756 67.1859L4.83948 52.6356L4.87303 40.3484V40.3568ZM34.7067 66.8925L34.4802 57.2706L50.8523 47.8833L50.8774 39.2337L59.3402 39.0325L59.3067 52.7949L34.7067 66.9009V66.8925ZM59.3486 34.1964L50.8858 34.3976L50.911 26.2256L33.4989 16.1176L33.2641 6.19391L59.3905 21.3644L59.357 34.1964H59.3486Z" fill="white"/>
<path d="M120.232 21.4147C117.565 20.258 114.495 19.6797 111.006 19.6797C107.181 19.6797 103.843 20.4592 100.975 22.0181C98.1063 23.5771 95.8837 25.7814 94.3069 28.6227C92.7301 31.464 91.9417 34.8166 91.9417 38.6721C91.9417 42.5276 92.7301 45.8802 94.3069 48.7215C95.8837 51.5628 98.1063 53.7671 100.975 55.3261C103.843 56.885 107.181 57.6645 111.006 57.6645C114.495 57.6645 117.573 57.0862 120.232 55.9295C122.899 54.7729 124.971 53.1134 126.455 50.9426C127.94 48.7801 128.686 46.2238 128.686 43.2903V42.5779H122.128V43.2903C122.128 46.1148 121.222 48.2689 119.402 49.7356C117.582 51.2024 114.797 51.94 111.056 51.94C108.154 51.94 105.756 51.4706 103.868 50.5319C101.973 49.5932 100.564 48.1432 99.6245 46.1819C98.6851 44.2206 98.2154 41.7146 98.2154 38.6637C98.2154 35.6129 98.6851 33.0649 99.6245 31.1204C100.564 29.1759 101.973 27.7343 103.868 26.7956C105.764 25.8568 108.154 25.3875 111.056 25.3875C114.805 25.3875 117.59 26.125 119.402 27.5918C121.222 29.0586 122.128 31.2042 122.128 34.0371V34.7496H128.686V34.0371C128.686 31.0617 127.94 28.5054 126.455 26.3513C124.971 24.2057 122.891 22.5545 120.232 21.3979V21.4147Z" fill="white"/>
<path d="M163.351 20.2329L154.704 33.3415L151.668 38.0184H151.232L148.145 33.3415L139.439 20.2329H132.159L148.363 44.4051V57.1281H154.259V44.4889L170.682 20.2329H163.351Z" fill="white"/>
<path d="M177.014 20.2329H175.202V57.1281H181.149V42.3097H203.744V37.0294H181.149V25.5719H204.566V20.2329H181.149H177.014Z" fill="white"/>
<path d="M213.004 20.2329H211.184V57.1281H213.004H217.131H240.716V51.7891H217.131V41.2117H239.894V35.923H217.131V25.5719H240.716V20.2329H217.131H213.004Z" fill="white"/>
<path d="M274.827 46.5004C274.164 45.327 273.443 44.3213 272.646 43.4999C271.858 42.6701 270.742 42.075 269.316 41.7062V41.3207C271.631 41.1782 273.602 40.6753 275.238 39.8372C276.873 38.9906 278.123 37.834 278.987 36.3672C279.851 34.9005 280.279 33.1404 280.279 31.0785C280.279 28.7652 279.734 26.804 278.652 25.1864C277.57 23.5687 276.01 22.345 273.971 21.4985C271.933 20.652 269.518 20.2329 266.725 20.2329H247.551V57.1281H253.506V42.8126H260.283C261.86 42.8126 263.127 42.9467 264.083 43.2233C265.039 43.4999 265.836 43.9357 266.482 44.5476C267.127 45.151 267.723 45.9556 268.276 46.9447L274.173 57.1281H281.008L274.835 46.5004H274.827ZM266.674 38.2447H253.506V25.5803H266.674C269.132 25.5803 270.994 26.0748 272.244 27.0638C273.493 28.0528 274.114 29.6704 274.114 31.9083C274.114 34.1462 273.485 35.856 272.244 36.8115C270.994 37.7669 269.14 38.2447 266.674 38.2447Z" fill="white"/>
</g>
<defs>
<clipPath id="clip0_718_1206">
<rect width="281" height="74" fill="white"/>
</clipPath>
</defs>
</svg>
