<svg width="1182" height="1161" viewBox="0 0 1182 1161" fill="none" xmlns="http://www.w3.org/2000/svg">
<g opacity="0.3" filter="url(#filter0_f_4002_2)">
<circle cx="-56.5" cy="1238.5" r="694.5" fill="#B95DFE"/>
</g>
<g style="mix-blend-mode:overlay" clip-path="url(#clip0_4002_2)">
<path opacity="0.5" d="M254.51 1144.53L191.816 1180.75L191.816 1253.19L192.067 1253.33L254.51 1289.41L317.205 1253.19L317.205 1180.75L316.954 1180.61L254.51 1144.53ZM192.796 1181.32L254.51 1145.68L316.224 1181.32L316.224 1252.6L254.51 1288.24L192.796 1252.6L192.796 1181.32Z" fill="#D0D9DD"/>
<path opacity="0.5" d="M67.9087 1108.59L5.21447 1144.82L5.21447 1217.25L5.46475 1217.4L67.9087 1253.48L130.603 1217.25L130.603 1144.82L130.353 1144.67L67.9087 1108.59ZM6.19472 1145.38L67.9087 1109.74L129.623 1145.38L129.623 1216.67L67.9087 1252.31L6.19472 1216.67L6.19472 1145.38Z" fill="#D0D9DD"/>
<path opacity="0.5" d="M67.9087 821.158L67.6584 821.304L5.21447 857.385L5.21447 929.818L5.46475 929.964L67.9087 966.044L130.603 929.818L130.603 857.385L130.353 857.239L67.9087 821.158ZM6.19472 857.949L67.9087 822.306L129.623 857.949L129.623 929.233L67.9087 964.876L6.19472 929.233L6.19472 857.949Z" fill="#D0D9DD"/>
<path opacity="0.5" d="M130.102 1072.68L67.4081 1108.91L67.4081 1181.34L67.6584 1181.48L130.102 1217.57L192.796 1181.34L192.796 1108.91L192.546 1108.76L130.102 1072.68ZM68.3883 1109.47L130.102 1073.83L191.816 1109.47L191.816 1180.75L130.102 1216.4L68.3883 1180.75L68.3883 1109.47Z" fill="#D0D9DD"/>
<path opacity="0.5" d="M130.102 1000.81L67.4081 1037.04L67.4081 1109.47L67.6584 1109.62L130.102 1145.7L192.796 1109.47L192.796 1037.04L192.546 1036.89L130.102 1000.81ZM68.3883 1037.6L130.102 1001.96L191.816 1037.6L191.816 1108.89L130.102 1144.53L68.3883 1108.89L68.3883 1037.6Z" fill="#D0D9DD"/>
<path opacity="0.5" d="M254.51 1000.81L191.816 1037.04L191.816 1109.47L192.066 1109.62L254.51 1145.7L317.205 1109.47L317.205 1037.04L316.954 1036.89L254.51 1000.81ZM192.796 1037.6L254.51 1001.96L316.224 1037.6L316.224 1108.89L254.51 1144.53L192.796 1108.89L192.796 1037.6Z" fill="#D0D9DD"/>
<path opacity="0.5" d="M130.102 785.224L129.852 785.37L67.4081 821.451L67.4081 893.883L67.6584 894.029L130.102 930.11L192.796 893.883L192.796 821.451L192.546 821.304L130.102 785.224ZM68.3883 822.014L130.102 786.372L191.816 822.014L191.816 893.299L130.102 928.941L68.3883 893.299L68.3883 822.014Z" fill="#D0D9DD"/>
<path opacity="0.5" d="M5.69412 785.224L5.44385 785.37L-57.0001 821.43L-57.0001 893.862L-56.7498 894.008L5.69413 930.089L68.3883 893.862L68.3883 821.43L68.138 821.283L5.69412 785.203L5.69412 785.224ZM-55.999 822.014L5.71498 786.372L67.4289 822.014L67.4289 893.299L5.71499 928.941L-55.999 893.299L-55.999 822.014Z" fill="#D0D9DD"/>
<path opacity="0.5" d="M192.296 964.876L129.602 1001.1L129.602 1073.54L129.852 1073.68L192.296 1109.76L254.99 1073.53L254.99 1001.1L254.74 1000.96L192.296 964.876ZM130.582 1001.67L192.296 966.023L254.01 1001.67L254.01 1072.95L192.296 1108.59L130.582 1072.95L130.582 1001.67Z" fill="#D0D9DD"/>
<path opacity="0.5" d="M67.9086 605.551L67.6583 605.697L5.21441 641.778L5.21441 714.21L5.46469 714.356L67.9086 750.437L68.1589 750.291L130.603 714.21L130.603 641.778L130.353 641.632L67.9086 605.551ZM6.19465 642.341L67.9086 606.699L129.623 642.341L129.623 713.626L67.9086 749.268L6.19466 713.626L6.19465 642.341Z" fill="#D0D9DD"/>
<path opacity="0.5" d="M130.102 712.958L129.852 713.104L67.4081 749.185L67.4081 821.617L67.6584 821.764L130.102 857.844L130.353 857.698L192.796 821.617L192.796 749.185L192.546 749.039L130.102 712.958ZM68.3883 749.748L130.102 714.106L191.816 749.748L191.816 821.033L130.102 856.676L68.3883 821.033L68.3883 749.748Z" fill="#D0D9DD"/>
<path opacity="0.5" d="M130.102 928.941L67.4081 965.168L67.4081 1037.6L67.6584 1037.75L130.102 1073.83L192.796 1037.6L192.796 965.168L192.546 965.022L130.102 928.941ZM68.3883 965.731L130.102 930.089L191.816 965.731L191.816 1037.02L130.102 1072.66L68.3883 1037.02L68.3883 965.731Z" fill="#D0D9DD"/>
<path d="M316.704 1037.02L253.76 1073.37L253.76 1146.09L254.135 1146.3L316.704 1182.44L379.649 1146.09L379.649 1073.37L379.273 1073.16L316.704 1037.02ZM255.24 1074.24L316.704 1038.75L378.168 1074.24L378.168 1145.24L316.704 1180.73L255.24 1145.24L255.24 1074.24Z" fill="white"/>
<path d="M67.9086 964.584L4.96416 1000.94L4.96417 1073.66L5.33958 1073.87L67.9086 1110.01L130.853 1073.66L130.853 1000.94L130.478 1000.73L67.9086 964.584ZM6.44497 1001.81L67.9086 966.316L129.372 1001.81L129.372 1072.8L67.9086 1108.3L6.44497 1072.8L6.44497 1001.81Z" fill="white"/>
<path d="M67.9086 677.107L67.5332 677.316L4.96416 713.459L4.96417 786.184L5.33958 786.392L67.9086 822.536L68.2841 822.327L130.853 786.184L130.853 713.459L130.478 713.25L67.9086 677.107ZM6.44497 714.335L67.9086 678.839L129.372 714.335L129.372 785.328L67.9086 820.825L6.44497 785.328L6.44497 714.335Z" fill="white"/>
<path d="M192.296 1108.32L129.351 1144.67L129.351 1217.4L129.727 1217.61L192.296 1253.75L255.24 1217.4L255.24 1144.67L254.865 1144.46L192.296 1108.32ZM130.832 1145.55L192.296 1110.05L253.76 1145.55L253.76 1216.54L192.296 1252.04L130.832 1216.54L130.832 1145.55Z" fill="white"/>
<path d="M192.296 892.735L191.921 892.944L129.351 929.087L129.351 1001.81L129.727 1002.02L192.296 1038.16L255.24 1001.81L255.24 929.087L254.865 928.878L192.296 892.735ZM130.832 929.963L192.296 894.467L253.76 929.963L253.76 1000.96L192.296 1036.45L130.832 1000.96L130.832 929.963Z" fill="white"/>
<path d="M192.296 748.997L191.92 749.205L129.351 785.349L129.351 858.073L129.727 858.282L192.296 894.425L192.671 894.217L255.24 858.073L255.24 785.349L254.865 785.14L192.296 748.997ZM130.832 786.225L192.296 750.729L253.76 786.225L253.76 857.218L192.296 892.714L130.832 857.218L130.832 786.225Z" fill="white"/>
<path opacity="0.5" d="M72.3719 607.742L72.3719 602.588L67.9086 600L63.4245 602.588L63.4245 607.742L67.9086 610.33L72.3719 607.742Z" fill="#D0D9DD"/>
<path opacity="0.5" d="M134.899 1148.14L134.899 1142.61L130.102 1139.85L125.305 1142.61L125.305 1148.14L130.102 1150.91L134.899 1148.14Z" fill="#D0D9DD"/>
<path opacity="0.5" d="M74.687 1041.23L74.687 1033.38L67.9087 1029.46L61.1095 1033.38L61.1095 1041.23L67.9087 1045.15L74.687 1041.23Z" fill="#D0D9DD"/>
<path opacity="0.5" d="M12.4933 1005.71L12.4933 997.868L5.69415 993.945L-1.08417 997.868L-1.08417 1005.71L5.69415 1009.64L12.4933 1005.71Z" fill="#D0D9DD"/>
<path opacity="0.5" d="M258.244 1075.75L258.244 1071.43L254.51 1069.26L250.756 1071.43L250.756 1075.75L254.51 1077.92L258.244 1075.75Z" fill="#D0D9DD"/>
<path opacity="0.5" d="M257.847 1003.71L257.847 999.85L254.51 997.93L251.153 999.85L251.153 1003.71L254.51 1005.65L257.847 1003.71Z" fill="#D0D9DD"/>
<path opacity="0.5" d="M260.851 861.851L260.851 854.526L254.51 850.874L248.149 854.526L248.149 861.851L254.51 865.523L260.851 861.851Z" fill="#D0D9DD"/>
<path opacity="0.5" d="M195.591 1111.64L195.591 1107.84L192.296 1105.94L189.001 1107.84L189.001 1111.64L192.296 1113.56L195.591 1111.64Z" fill="#D0D9DD"/>
<path opacity="0.5" d="M193.86 967.15L193.86 965.335L192.296 964.437L190.732 965.335L190.732 967.15L192.296 968.068L193.86 967.15Z" fill="#D0D9DD"/>
<path opacity="0.5" d="M196.822 825.352L196.822 820.135L192.296 817.527L187.791 820.135L187.791 825.352L192.296 827.961L196.822 825.352Z" fill="#D0D9DD"/>
<path opacity="0.5" d="M319.979 1039.9L319.979 1036.1L316.704 1034.22L313.43 1036.1L313.43 1039.9L316.704 1041.77L319.979 1039.9Z" fill="#D0D9DD"/>
<path opacity="0.5" d="M11.8259 717.466L11.8259 710.391L5.69414 706.865L-0.437623 710.391L-0.437622 717.466L5.69414 721.013L11.8259 717.466Z" fill="#D0D9DD"/>
<path d="M132.334 859.492L132.334 856.905L130.102 855.59L127.85 856.905L127.85 859.492L130.102 860.786L132.334 859.492Z" fill="white"/>
<path d="M134.566 1076.16L134.566 1071.01L130.102 1068.42L125.639 1071.01L125.639 1076.16L130.102 1078.75L134.566 1076.16Z" fill="white"/>
<path d="M196.759 1040.23L196.759 1035.08L192.296 1032.49L187.833 1035.08L187.833 1040.23L192.296 1042.82L196.759 1040.23Z" fill="white"/>
<path d="M10.1574 1148.01L10.1574 1142.86L5.69415 1140.27L1.2309 1142.86L1.2309 1148.01L5.69415 1150.6L10.1574 1148.01Z" fill="white"/>
<path d="M136.881 933.907L136.881 926.061L130.102 922.138L123.303 926.061L123.303 933.907L130.102 937.831L136.881 933.907Z" fill="white"/>
<path d="M133.69 788.479L133.69 784.326L130.102 782.239L126.515 784.326L126.515 788.479L130.102 790.545L133.69 788.479Z" fill="white"/>
<path d="M257.118 1146.89L257.118 1143.86L254.51 1142.36L251.883 1143.86L251.883 1146.89L254.51 1148.41L257.118 1146.89Z" fill="white"/>
<path d="M71.1205 896.366L71.1205 892.631L67.9086 890.774L64.6759 892.631L64.6759 896.366L67.9086 898.224L71.1205 896.366Z" fill="white"/>
<path d="M259.036 932.614L259.036 927.376L254.51 924.746L249.964 927.376L249.964 932.614L254.51 935.222L259.036 932.614Z" fill="white"/>
<path d="M195.383 896.283L195.383 892.714L192.296 890.941L189.23 892.714L189.23 896.283L192.296 898.057L195.383 896.283Z" fill="white"/>
<path d="M195.8 753.025L195.8 748.976L192.296 746.973L188.813 748.976L188.813 753.025L192.296 755.028L195.8 753.025Z" fill="white"/>
<path d="M381.129 1146.66L381.129 1144.09L378.898 1142.82L376.687 1144.09L376.687 1146.66L378.898 1147.93L381.129 1146.66Z" fill="white"/>
</g>
<defs>
<filter id="filter0_f_4002_2" x="-1295" y="0" width="2477" height="2477" filterUnits="userSpaceOnUse" color-interpolation-filters="sRGB">
<feFlood flood-opacity="0" result="BackgroundImageFix"/>
<feBlend mode="normal" in="SourceGraphic" in2="BackgroundImageFix" result="shape"/>
<feGaussianBlur stdDeviation="272" result="effect1_foregroundBlur_4002_2"/>
</filter>
<clipPath id="clip0_4002_2">
<rect width="623" height="905" fill="white" transform="matrix(1 -8.74228e-08 -8.74228e-08 -1 -57 1505)"/>
</clipPath>
</defs>
</svg>
